<?xml version="1.0" encoding="utf-8"?>
<!-- Generator: Adobe Illustrator 16.0.0, SVG Export Plug-In . SVG Version: 6.00 Build 0)  -->
<!DOCTYPE svg PUBLIC "-//W3C//DTD SVG 1.1//EN" "http://www.w3.org/Graphics/SVG/1.1/DTD/svg11.dtd">
<svg version="1.1" id="Layer_1" xmlns="http://www.w3.org/2000/svg" xmlns:xlink="http://www.w3.org/1999/xlink" x="0px" y="0px"
	 width="444.651px" height="223.057px" viewBox="0 0 444.651 223.057" enable-background="new 0 0 444.651 223.057"
	 xml:space="preserve">
<polygon points="402.338,128.286 410.175,136.165 409.661,138.256 394.258,134.466 394.993,131.493 403.57,133.609 398.433,128.421 
	398.938,126.354 405.897,124.144 397.319,122.034 398.051,119.066 413.446,122.855 412.937,124.946 "/>
<path d="M403.639,151.147c-2.423,4.246-7.262,5.372-11.177,3.139c-3.912-2.232-5.407-6.97-2.986-11.219
	c2.427-4.249,7.264-5.375,11.177-3.142C404.568,142.158,406.065,146.896,403.639,151.147 M391.841,144.41
	c-1.482,2.595-0.46,5.737,2.135,7.22c2.6,1.479,5.822,0.767,7.304-1.828c1.482-2.599,0.457-5.741-2.142-7.217
	C396.543,141.104,393.319,141.815,391.841,144.41"/>
<polygon points="395.828,162.655 394.319,164.188 380.768,163.224 388.116,170.476 385.975,172.654 374.687,161.525 
	376.198,159.992 389.747,160.956 382.398,153.704 384.548,151.529 "/>
<polygon points="380.534,176.919 378.685,178.013 365.814,173.611 371.072,182.51 368.435,184.063 360.371,170.408 362.225,169.314 
	375.088,173.715 369.833,164.819 372.468,163.263 "/>
<path d="M358.786,171.211l-2.215,17.105l-2.07,0.583l-10.86-13.397l3.075-0.874l2.394,2.971l6.124-1.735l0.481-3.783
	L358.786,171.211z M354.863,178.795l-3.88,1.094l3.22,3.964L354.863,178.795z"/>
<rect x="339.248" y="175.728" transform="matrix(0.9953 -0.0973 0.0973 0.9953 -16.2465 34.0139)" width="3.057" height="15.855"/>
<polygon points="331.458,189.034 331.601,185.753 326.733,185.545 326.851,182.828 331.714,183.037 331.904,178.627 
	325.232,178.336 325.348,175.625 335.08,176.045 334.393,191.881 324.89,191.474 325.009,188.755 "/>
<path d="M311.259,179.362l2.421-6.592l2.87,1.055l-5.469,14.88l-5.427-1.99c-1.527-0.563-2.35-1.351-2.841-2.308
	c-0.527-1.062-0.641-2.331-0.204-3.518c0.44-1.195,1.347-2.088,2.438-2.561c0.546-0.232,1.146-0.349,1.809-0.323l-3.058-8.87
	l3.546,1.304l2.873,8.536L311.259,179.362z M307.939,181.035c-0.832-0.305-1.253-0.266-1.611-0.084
	c-0.356,0.182-0.684,0.543-0.839,0.971c-0.161,0.446-0.151,0.932,0.004,1.304c0.151,0.372,0.442,0.696,1.271,0.997l2.379,0.877
	l1.178-3.187L307.939,181.035z"/>
<path d="M289.015,178.556c-4.083-2.692-4.892-7.598-2.407-11.358c2.486-3.764,7.311-4.948,11.395-2.252
	c4.08,2.692,4.889,7.601,2.407,11.361C297.923,180.067,293.1,181.255,289.015,178.556 M296.503,167.214
	c-2.494-1.647-5.694-0.829-7.343,1.667c-1.646,2.499-1.146,5.76,1.354,7.408c2.499,1.65,5.695,0.832,7.343-1.667
	C299.506,172.126,299.002,168.861,296.503,167.214"/>
<polygon points="281.382,160.661 286.479,155.6 288.633,157.768 283.537,162.83 281.207,172.803 278.751,170.324 280.25,163.923 
	273.852,165.392 271.396,162.914 "/>
<path d="M284.295,153.879l-16.941,3.255l-1.203-1.779l9.323-14.517l1.788,2.647l-2.07,3.204l3.569,5.274l3.744-0.731
	L284.295,153.879z M275.861,152.529l-2.259-3.343l-2.75,4.301L275.861,152.529z"/>
<polygon points="260.238,144.921 259.108,142.081 271.315,137.23 268.845,131.017 271.372,130.017 274.971,139.064 "/>
<polygon points="257.332,127.502 260.543,126.803 259.504,122.044 262.161,121.467 263.196,126.225 267.513,125.283 
	266.089,118.756 268.742,118.173 270.819,127.687 255.326,131.068 253.304,121.771 255.957,121.196 "/>
<path d="M378.984,98.107c-3.039,0.503-4.977,3.211-4.481,6.226c0.339,2.036,1.565,3.351,2.899,4.069l-1.508,2.383
	c-1.997-1.09-3.612-3.211-4.081-6.074c-0.809-4.872,2.182-8.878,6.669-9.624c4.495-0.741,8.607,2.042,9.411,6.916
	c0.384,2.324-0.155,4.458-1.289,6.092l-2.374-1.604c0.78-1.093,1.235-2.525,0.98-4.065
	C384.715,99.453,381.954,97.614,378.984,98.107"/>
<path d="M373.254,112.159l14.005,10.066l-0.463,2.1l-16.95,3.2l0.693-3.113l3.749-0.705l1.376-6.207l-3.1-2.22L373.254,112.159z
	 M378.072,119.212l-0.874,3.932l5.013-0.951L378.072,119.212z"/>
<polygon points="381.312,139.101 380,140.806 366.425,141.514 374.615,147.814 372.749,150.235 360.178,140.569 361.491,138.864 
	375.066,138.158 366.876,131.861 368.74,129.435 "/>
<path d="M358.626,142.119l1.357,17.196l-1.903,0.997l-13.387-10.873l2.828-1.485l2.954,2.41l5.635-2.957l-0.309-3.806
	L358.626,142.119z M356.353,150.352l-3.573,1.874l3.964,3.213L356.353,150.352z"/>
<path d="M338.545,165.878c-2.509,0.171-4.194-0.256-5.546-1.116c-2.043-1.314-3.402-3.583-3.58-6.204
	c-0.178-2.622,0.854-5.054,2.703-6.631c1.223-1.039,2.834-1.692,5.342-1.861l4.971-0.343l1.081,15.817L338.545,165.878z
	 M333.855,161.703c0.958,1.048,2.291,1.618,4.165,1.489l2.262-0.155l-0.711-10.394l-2.259,0.155
	c-1.875,0.129-3.12,0.874-3.926,2.039c-0.66,0.955-1.006,2.204-0.919,3.515C332.559,159.658,333.073,160.849,333.855,161.703"/>
<polygon points="322.976,165.289 319.99,164.628 323.433,149.154 326.417,149.812 "/>
<polygon points="310.046,157.846 311.599,154.95 307.312,152.649 308.593,150.254 312.884,152.559 314.971,148.669 309.085,145.51 
	310.37,143.113 318.951,147.718 311.46,161.687 303.075,157.189 304.357,154.795 "/>
<polygon points="294.989,150.96 293.646,149.277 296.203,135.929 288.132,142.378 286.223,139.99 298.609,130.095 299.953,131.774 
	297.396,145.123 305.467,138.673 307.374,141.064 "/>
<polygon points="281.382,129.816 280.925,127.713 289.16,116.901 279.068,119.079 278.421,116.09 293.921,112.747 294.374,114.85 
	286.138,125.662 296.235,123.483 296.878,126.477 "/>
<polygon points="282.042,103.505 285.255,104.178 286.251,99.413 288.912,99.97 287.912,104.734 292.239,105.642 293.61,99.105 
	296.268,99.662 294.268,109.192 278.753,105.941 280.705,96.63 283.361,97.19 "/>
<path d="M262.946,99.517l6.874,1.435l-0.628,2.995l-15.52-3.247l1.181-5.653c0.333-1.597,0.987-2.521,1.864-3.152
	c0.971-0.677,2.213-0.971,3.455-0.712c1.243,0.259,2.263,1.027,2.884,2.039c0.311,0.503,0.515,1.079,0.586,1.743l8.329-4.321
	l-0.773,3.702l-8.031,4.084L262.946,99.517z M260.801,96.475c0.185-0.866,0.085-1.28-0.148-1.603
	c-0.23-0.329-0.637-0.597-1.085-0.69c-0.461-0.1-0.947-0.011-1.291,0.191c-0.34,0.206-0.617,0.541-0.803,1.406l-0.52,2.486
	l3.326,0.695L260.801,96.475z"/>
<path d="M260.462,77.386c2.081-4.427,6.817-5.932,10.898-4.016c4.077,1.919,5.944,6.523,3.863,10.952
	c-2.081,4.427-6.817,5.932-10.896,4.012C260.248,86.419,258.384,81.812,260.462,77.386 M272.761,83.165
	c1.272-2.703,0.004-5.757-2.705-7.028c-2.704-1.269-5.859-0.297-7.131,2.406c-1.275,2.704,0,5.755,2.701,7.026
	C268.334,86.839,271.489,85.872,272.761,83.165"/>
<polygon points="276.944,67.318 282.683,71.641 280.844,74.082 275.104,69.764 264.9,68.89 267.002,66.104 273.551,66.667 
	271.185,60.549 273.282,57.76 "/>
<path d="M284.165,69.361l-5.663-16.287l1.589-1.448l15.704,7.13l-2.359,2.151l-3.472-1.584l-4.699,4.287l1.259,3.601L284.165,69.361
	z M284.285,60.824l2.979-2.716l-4.65-2.105L284.285,60.824z"/>
<polygon points="289.433,44.157 292.083,42.624 298.668,53.99 304.45,50.639 305.816,52.992 297.384,57.876 "/>
<path d="M312.175,42.174c0.722,2.997,3.563,4.733,6.54,4.016c2-0.482,3.22-1.802,3.841-3.187l2.489,1.336
	c-0.942,2.068-2.944,3.83-5.761,4.509c-4.802,1.157-9.015-1.53-10.076-5.957c-1.07-4.424,1.411-8.729,6.213-9.884
	c2.284-0.55,4.453-0.167,6.164,0.845l-1.428,2.485c-1.146-0.699-2.608-1.046-4.121-0.683
	C313.104,36.358,311.47,39.249,312.175,42.174"/>
<path d="M325.578,47.191l6.54-15.958l2.152-0.032l7.045,15.742l-3.194,0.049l-1.548-3.485l-6.361,0.099l-1.443,3.534L325.578,47.191
	z M331.322,40.873l4.028-0.063l-2.087-4.655L331.322,40.873z"/>
<polygon points="346.502,31.947 348.589,32.474 354.624,44.645 357.154,34.634 360.112,35.38 356.239,50.752 354.151,50.225 
	348.116,38.051 345.589,48.063 342.622,47.316 "/>
<path d="M357.851,51.455l13.609-10.588l1.885,1.041l-1.722,17.162l-2.796-1.548l0.392-3.794l-5.569-3.078l-3.007,2.35
	L357.851,51.455z M365.977,48.829l3.523,1.949l0.505-5.078L365.977,48.829z"/>
<path d="M387.34,51.794c1.847,1.708,2.691,3.231,2.99,4.807c0.446,2.386-0.272,4.931-2.059,6.857
	c-1.786,1.928-4.265,2.839-6.676,2.581c-1.599-0.178-3.178-0.901-5.026-2.611l-3.655-3.386l10.77-11.63L387.34,51.794z
	 M387.521,58.071c0.101-1.413-0.395-2.772-1.776-4.05l-1.663-1.537l-7.073,7.64l1.659,1.542c1.382,1.275,2.773,1.669,4.174,1.458
	c1.146-0.173,2.295-0.778,3.188-1.743C386.92,60.419,387.438,59.23,387.521,58.071"/>
<rect x="389.403" y="59.318" transform="matrix(-0.6136 -0.7896 0.7896 -0.6136 577.697 417.2062)" width="3.059" height="15.862"/>
<path d="M386.984,74.724l17.198-1.369l1.002,1.909l-10.872,13.397l-1.484-2.827l2.41-2.959l-2.964-5.633l-3.807,0.309
	L386.984,74.724z M395.22,76.997l1.877,3.57l3.213-3.967L395.22,76.997z"/>
<polygon points="410.312,86.803 410.787,88.899 402.682,99.801 412.745,97.508 413.428,100.49 397.97,104.01 397.493,101.913 
	405.603,91.007 395.533,93.3 394.856,90.322 "/>
<polygon points="310.385,72.567 310.524,61.46 312.373,60.363 320.446,74.006 317.812,75.562 313.317,67.961 313.213,75.258 
	311.383,76.345 304.936,72.922 309.435,80.523 306.804,82.081 298.729,68.436 300.581,67.341 "/>
<rect x="325.042" y="56.626" transform="matrix(-0.9892 0.1465 -0.1465 -0.9892 659.0731 80.5803)" width="3.057" height="15.851"/>
<polygon points="338.606,56.548 340.703,57.016 347.088,69.014 349.324,58.931 352.314,59.596 348.871,75.07 346.771,74.604 
	340.392,62.605 338.146,72.688 335.163,72.022 "/>
<polygon points="369.697,69.277 368.154,71.514 364.704,69.134 357.242,79.947 354.725,78.211 362.187,67.398 358.737,65.017 
	360.284,62.778 "/>
<path fill="#C79119" d="M137.971,166.93c0-8.605-6.996-15.604-15.594-15.604c-8.604,0-15.607,7-15.607,15.604
	c0,8.604,7.003,15.601,15.607,15.601C130.976,182.53,137.971,175.534,137.971,166.93"/>
<path fill="#C79119" d="M159.254,160.616c-8.598,0-15.598,6.996-15.598,15.604c0,8.602,7,15.597,15.598,15.597
	c8.6,0,15.6-6.996,15.6-15.597C174.854,167.612,167.854,160.616,159.254,160.616"/>
<path fill="#C79119" d="M129.872,147.847c6.051,0,10.976-4.928,10.976-10.986c0-6.054-4.925-10.979-10.976-10.979
	c-6.054,0-10.983,4.925-10.983,10.979C118.888,142.919,123.817,147.847,129.872,147.847"/>
<path fill="#C79119" d="M104.451,159.852c0-6.255-5.09-11.348-11.352-11.348c-6.255,0-11.346,5.093-11.346,11.348
	c0,6.258,5.091,11.346,11.346,11.346C99.36,171.198,104.451,166.11,104.451,159.852"/>
<path fill="#C79119" d="M179.488,148.086c7.487,0,13.574-6.09,13.574-13.575s-6.087-13.575-13.574-13.575
	c-7.481,0-13.571,6.09-13.575,13.575C165.913,141.996,172,148.086,179.488,148.086"/>
<path fill="#C79119" d="M155.391,158.416c6.255,0,11.345-5.086,11.345-11.345c0-6.258-5.09-11.346-11.345-11.346
	c-6.256,0-11.346,5.087-11.346,11.346C144.044,153.329,149.135,158.416,155.391,158.416"/>
<path fill="#C79119" d="M155.206,106.493c0-5.735-4.667-10.401-10.403-10.401c-5.735,0-10.4,4.666-10.4,10.401
	c0,5.732,4.665,10.396,10.4,10.396C150.539,116.889,155.206,112.226,155.206,106.493"/>
<path fill="#C79119" d="M117.575,142.32c0-5.281-4.294-9.579-9.572-9.579c-5.281,0.007-9.582,4.301-9.582,9.579
	c0,5.281,4.3,9.579,9.582,9.579C113.28,151.898,117.575,147.601,117.575,142.32"/>
<path fill="#C79119" d="M186.594,109.302c0,4.448,3.618,8.069,8.065,8.069c4.448,0,8.069-3.621,8.069-8.069
	c0-4.449-3.621-8.069-8.069-8.069C190.212,101.233,186.594,104.853,186.594,109.302"/>
<path fill="#C79119" d="M140.44,90.75c0-3.975-3.236-7.213-7.213-7.213c-3.97,0-7.204,3.238-7.204,7.213
	c0,3.968,3.234,7.199,7.204,7.199C137.204,97.949,140.44,94.718,140.44,90.75"/>
<path fill="#C79119" d="M137.78,178.715c-2.841,0-5.151,2.313-5.151,5.155c0,2.845,2.311,5.161,5.151,5.161
	c2.845,0,5.151-2.316,5.151-5.161C142.931,181.028,140.625,178.715,137.78,178.715"/>
<path fill="#C79119" d="M99.807,171.55c-4.164,0.204-7.389,3.757-7.185,7.924c0.201,4.033,3.518,7.197,7.553,7.197
	c0.126,0,0.251-0.006,0.378-0.012c4.162-0.205,7.381-3.764,7.178-7.932C107.524,174.573,104.003,171.346,99.807,171.55"/>
<path fill="#C79119" d="M202.68,131.726c-4.446,0-8.063,3.621-8.063,8.067c0,4.447,3.617,8.067,8.063,8.067
	c4.45,0,8.071-3.621,8.071-8.067C210.751,135.347,207.13,131.726,202.68,131.726"/>
<path fill="#C79119" d="M147.401,124.354c0,5.28,4.297,9.578,9.574,9.578c5.282,0,9.58-4.297,9.58-9.578
	c0-5.278-4.298-9.573-9.58-9.573C151.698,114.782,147.401,119.076,147.401,124.354"/>
<path fill="#C79119" d="M180.562,149.908c-5.277,0-9.578,4.294-9.578,9.575c0,5.285,4.301,9.582,9.578,9.582
	c5.281,0,9.579-4.297,9.579-9.582C190.142,154.202,185.844,149.908,180.562,149.908"/>
<path fill="#C79119" d="M165.622,109.798c0,5.281,4.297,9.576,9.578,9.576c5.278,0,9.572-4.294,9.572-9.576
	c0-5.282-4.294-9.58-9.572-9.58C169.919,100.219,165.622,104.516,165.622,109.798"/>
<path fill="#C79119" d="M218.468,103.689c0-3.834-3.122-6.956-6.96-6.956c-3.835,0-6.961,3.122-6.961,6.956
	c0,3.833,3.126,6.956,6.961,6.956C215.346,110.645,218.468,107.522,218.468,103.689"/>
<path fill="#C79119" d="M184.229,97.476c2.733,0,4.954-2.22,4.954-4.951c0-2.73-2.221-4.951-4.954-4.951
	c-2.731,0-4.951,2.22-4.951,4.951C179.278,95.256,181.498,97.476,184.229,97.476"/>
<path fill="#C79119" d="M196.396,123.471c0,3.313,2.695,6.016,6.013,6.022h0.003c3.316,0,6.012-2.699,6.012-6.022
	c0-3.313-2.695-6.01-6.012-6.01C199.092,117.461,196.396,120.157,196.396,123.471"/>
<path fill="#C79119" d="M99.573,132.725c3.518,0,6.372-2.857,6.372-6.375s-2.854-6.375-6.372-6.375s-6.381,2.857-6.381,6.372
	C93.191,129.861,96.055,132.725,99.573,132.725"/>
<path fill="#C79119" d="M152.63,83.377c-3.518,0-6.381,2.862-6.381,6.381c0,3.522,2.864,6.388,6.381,6.388
	c3.524,0,6.388-2.866,6.388-6.388C159.018,86.239,156.154,83.377,152.63,83.377"/>
<path fill="#C79119" d="M102.065,80.4c-3.839,0-6.961,3.119-6.961,6.952c0,3.835,3.123,6.953,6.961,6.956
	c3.837,0,6.958-3.121,6.958-6.956C109.023,83.52,105.902,80.4,102.065,80.4"/>
<path fill="#C79119" d="M217.15,130.412c-2.729,0-4.95,2.22-4.95,4.951c0,2.725,2.221,4.951,4.948,4.951h0.002
	c2.732,0,4.952-2.22,4.952-4.948C222.103,132.635,219.883,130.412,217.15,130.412"/>
<path fill="#C79119" d="M90.146,124.302c-1.56-5.974-6.957-10.148-13.131-10.148c-1.165,0-2.316,0.146-3.427,0.437
	c-3.504,0.916-6.446,3.143-8.284,6.274c-1.835,3.126-2.343,6.783-1.427,10.281c1.553,5.977,6.955,10.151,13.128,10.158
	c1.155,0,2.313-0.148,3.43-0.439C87.672,138.977,92.03,131.547,90.146,124.302"/>
<path fill="#C79119" d="M50.326,128.373c2.083-0.543,3.832-1.864,4.922-3.725c1.094-1.861,1.395-4.035,0.851-6.113
	c-0.923-3.556-4.132-6.038-7.802-6.038c-0.684,0-1.366,0.089-2.039,0.262c-2.087,0.545-3.838,1.868-4.925,3.725
	c-1.09,1.864-1.391,4.039-0.845,6.123c0.926,3.55,4.136,6.028,7.806,6.028C48.995,128.635,49.678,128.545,50.326,128.373"/>
<path fill="#C79119" d="M74.699,144.258c-0.408,0-0.819,0.056-1.22,0.163c-2.466,0.663-3.948,3.187-3.297,5.624
	c0.534,1.99,2.359,3.381,4.437,3.381c0.404,0,0.815-0.058,1.226-0.165c2.465-0.663,3.945-3.19,3.293-5.627
	C78.607,145.646,76.779,144.258,74.699,144.258"/>
<path fill="#C79119" d="M70.936,106.861c0.844,3.253,3.779,5.527,7.142,5.527c0.628,0,1.255-0.083,1.864-0.247
	c1.913-0.493,3.518-1.702,4.512-3.405c1-1.701,1.274-3.688,0.775-5.6c-0.854-3.251-3.792-5.524-7.145-5.524
	c-0.633,0-1.262,0.082-1.867,0.243C72.282,98.881,69.91,102.921,70.936,106.861"/>
<path fill="#C79119" d="M62.923,144.093c1.298-2.207,1.657-4.79,1.007-7.265c-1.095-4.217-4.903-7.161-9.258-7.161
	c-0.825,0-1.634,0.107-2.42,0.311c-2.479,0.647-4.556,2.22-5.847,4.427c-1.295,2.201-1.647,4.78-1.003,7.258
	c1.097,4.217,4.909,7.161,9.261,7.161c0.822,0,1.634-0.106,2.417-0.311C59.555,147.873,61.629,146.3,62.923,144.093"/>
<path fill="#C79119" d="M40.074,112.449c0.583,0,1.175-0.076,1.764-0.225c1.796-0.471,3.304-1.61,4.243-3.215
	c0.944-1.6,1.204-3.475,0.737-5.275c-0.799-3.065-3.565-5.206-6.727-5.206c-0.589,0-1.181,0.077-1.763,0.226
	c-1.803,0.47-3.311,1.61-4.246,3.213c-0.942,1.605-1.201,3.481-0.731,5.273C34.149,110.309,36.912,112.449,40.074,112.449"/>
<path fill="#C79119" d="M36.162,129.745c-0.415,0-0.834,0.052-1.249,0.162c-1.278,0.333-2.353,1.146-3.022,2.288
	c-0.673,1.142-0.854,2.475-0.524,3.754c0.567,2.181,2.538,3.705,4.793,3.705c0.411,0,0.832-0.052,1.249-0.158
	c2.638-0.692,4.227-3.404,3.543-6.042C40.385,131.272,38.414,129.745,36.162,129.745"/>
<path fill="#C79119" d="M147.122,162.7c0.606-1.033,0.773-2.236,0.476-3.392c-0.523-1.974-2.306-3.353-4.332-3.353
	c-0.376,0-0.758,0.055-1.134,0.149c-2.382,0.624-3.821,3.074-3.2,5.462c0.516,1.968,2.291,3.346,4.327,3.346
	c0.382,0,0.764-0.049,1.126-0.143C145.543,164.47,146.517,163.735,147.122,162.7"/>
<path fill="#C79119" d="M129.762,117.329c-0.647,1.1-0.829,2.398-0.504,3.641c0.546,2.104,2.452,3.579,4.633,3.579
	c0.404,0,0.809-0.048,1.211-0.152c1.238-0.323,2.28-1.113,2.921-2.213c0.651-1.1,0.828-2.391,0.508-3.634
	c-0.55-2.11-2.456-3.585-4.634-3.585c-0.411,0-0.819,0.049-1.212,0.152C131.444,115.436,130.403,116.226,129.762,117.329"/>
<path fill="#C79119" d="M61.654,116.523c0.634,0,1.266-0.081,1.874-0.243c1.922-0.501,3.537-1.718,4.546-3.44
	c1.006-1.716,1.285-3.721,0.783-5.643c-0.857-3.28-3.818-5.569-7.2-5.569c-0.625,0-1.259,0.083-1.877,0.241
	c-1.925,0.5-3.541,1.723-4.546,3.44c-1.009,1.713-1.288,3.714-0.783,5.638C55.303,114.232,58.267,116.523,61.654,116.523"/>
<path fill="#C79119" d="M79.912,161.321c-0.786-3.035-3.527-5.158-6.66-5.158c-0.588,0-1.174,0.078-1.744,0.227
	c-1.776,0.459-3.269,1.591-4.204,3.181c-0.932,1.588-1.188,3.446-0.725,5.223c0.79,3.035,3.527,5.154,6.663,5.154
	c0.583,0,1.175-0.078,1.745-0.226C78.656,168.764,80.866,164.998,79.912,161.321"/>
<path fill="#C79119" d="M69.919,97.693h0.003c0.417,0,0.838-0.053,1.246-0.162c1.282-0.335,2.355-1.147,3.022-2.286
	c0.673-1.144,0.86-2.476,0.52-3.755c-0.565-2.18-2.533-3.706-4.786-3.706c-0.417,0-0.844,0.054-1.249,0.161
	c-1.282,0.332-2.356,1.142-3.022,2.286c-0.67,1.136-0.857,2.469-0.521,3.75C65.703,96.166,67.67,97.693,69.919,97.693"/>
<path fill="#C79119" d="M66.933,152.959c-0.595-2.168-2.622-3.676-4.929-3.676c-0.485,0-0.983,0.064-1.465,0.204
	c-2.783,0.79-4.446,3.621-3.702,6.316c0.592,2.159,2.621,3.666,4.932,3.672c0.485,0,0.977-0.071,1.466-0.203
	C66.01,158.487,67.67,155.652,66.933,152.959"/>
<path fill="#C79119" d="M128.806,51.886c0,2.608,2.121,4.728,4.723,4.728c2.601,0,4.72-2.12,4.72-4.728
	c0-2.601-2.119-4.719-4.72-4.719C130.927,47.167,128.806,49.285,128.806,51.886"/>
<path fill="#C79119" d="M95.306,73c-1.907,0-3.457,1.547-3.457,3.45c0,1.907,1.55,3.459,3.457,3.459
	c1.898,0,3.448-1.552,3.448-3.459C98.754,74.546,97.204,73,95.306,73"/>
<path fill="#C79119" d="M86.778,113.633c0,2.275,1.851,4.129,4.13,4.129c2.278,0,4.136-1.854,4.136-4.129
	c0-2.276-1.858-4.132-4.136-4.132C88.629,109.501,86.778,111.357,86.778,113.633"/>
<path fill="#C79119" d="M87.536,142.841c0,1.977,1.608,3.588,3.591,3.588c1.978,0,3.592-1.611,3.592-3.588
	c0-1.984-1.614-3.592-3.592-3.592C89.144,139.249,87.536,140.857,87.536,142.841"/>
<path fill="#C79119" d="M81.892,168.942c-1.035,0.049-1.992,0.501-2.691,1.272c-0.703,0.77-1.059,1.767-1.007,2.799
	c0.101,2.08,1.806,3.705,3.883,3.705c0.068,0,0.129-0.003,0.197-0.006c1.036-0.051,1.994-0.505,2.689-1.271
	c0.699-0.774,1.055-1.767,1.006-2.812C85.863,170.495,84.05,168.835,81.892,168.942"/>
<path fill="#C79119" d="M145.174,137.033L145.174,137.033c1.815-0.006,3.288-1.479,3.288-3.288c0-1.812-1.473-3.291-3.288-3.291
	c-1.812,0-3.281,1.479-3.281,3.291S143.362,137.033,145.174,137.033"/>
<path fill="#C79119" d="M193.219,146.132c-2.275,0-4.122,1.848-4.122,4.116c0,2.275,1.847,4.123,4.122,4.123
	c2.269,0,4.119-1.854,4.119-4.123C197.338,147.979,195.487,146.132,193.219,146.132"/>
<path fill="#C79119" d="M130.282,108.3c-0.01-4.116-1.618-7.983-4.531-10.885c-2.902-2.9-6.765-4.497-10.875-4.497
	c-4.12,0-7.994,1.607-10.902,4.527c-2.909,2.913-4.504,6.783-4.502,10.897c0.009,4.116,1.615,7.979,4.527,10.883
	c2.907,2.902,6.77,4.5,10.874,4.5h0.004c4.128,0,7.999-1.611,10.904-4.53C128.69,116.283,130.289,112.413,130.282,108.3"/>
<path fill="#C79119" d="M117.516,66.305h0.003c2.44,0,4.738-0.952,6.459-2.682c1.722-1.723,2.667-4.016,2.663-6.457
	c0-2.433-0.947-4.723-2.679-6.449c-1.718-1.717-4.007-2.66-6.443-2.66c-2.44,0-4.737,0.952-6.458,2.68
	c-1.722,1.725-2.666,4.018-2.664,6.458c0.004,2.44,0.955,4.73,2.68,6.446C112.802,65.359,115.089,66.305,117.516,66.305"/>
<path fill="#C79119" d="M153.403,81.617c2.444,0,4.738-0.952,6.46-2.677c3.552-3.568,3.546-9.357-0.017-12.91
	c-1.731-1.717-4.016-2.663-6.443-2.663c-2.437,0-4.733,0.955-6.465,2.682c-3.546,3.57-3.537,9.359,0.023,12.905
	C148.683,80.672,150.974,81.617,153.403,81.617"/>
<path fill="#C79119" d="M89.545,179.624c-1.378-1.249-3.184-1.893-5.051-1.802c-1.877,0.087-3.602,0.909-4.857,2.3
	c-1.263,1.392-1.899,3.185-1.802,5.058c0.093,1.874,0.912,3.599,2.3,4.85c1.298,1.176,2.965,1.82,4.696,1.82
	c0.116,0,0.236-0.007,0.352-0.014c1.877-0.091,3.606-0.912,4.863-2.303c1.257-1.392,1.897-3.191,1.807-5.064
	C91.752,182.595,90.934,180.873,89.545,179.624"/>
<path fill="#C79119" d="M119.291,67.552c-2.777,0-5.383,1.081-7.337,3.039c-1.951,1.966-3.028,4.569-3.024,7.333
	c0.003,2.763,1.084,5.365,3.042,7.32c1.961,1.949,4.556,3.025,7.316,3.025h0.004c2.773,0,5.377-1.083,7.335-3.045
	c1.955-1.958,3.025-4.559,3.025-7.329c-0.006-2.763-1.09-5.365-3.047-7.32C124.655,68.626,122.058,67.552,119.291,67.552"/>
<path fill="#C79119" d="M126.555,46.913c2.104,0,4.077-0.822,5.562-2.309c3.058-3.07,3.055-8.053-0.009-11.116
	c-1.486-1.477-3.457-2.292-5.553-2.292c-2.106,0-4.081,0.818-5.566,2.31c-1.482,1.487-2.297,3.462-2.293,5.56
	c0.002,2.101,0.825,4.073,2.31,5.554C122.487,46.098,124.455,46.913,126.555,46.913"/>
<path fill="#C79119" d="M89.749,64.256c1.492,0,2.894-0.583,3.948-1.641c2.17-2.17,2.165-5.706-0.007-7.88
	c-1.051-1.046-2.45-1.625-3.941-1.625c-1.485,0-2.884,0.581-3.938,1.634c-2.171,2.178-2.165,5.717,0.007,7.887
	C86.869,63.68,88.267,64.256,89.749,64.256"/>
<path fill="#C79119" d="M102.825,73.199c1.608,0,3.123-0.629,4.265-1.769c2.34-2.342,2.334-6.161-0.01-8.504
	c-1.142-1.129-2.65-1.752-4.248-1.752c-1.606,0-3.12,0.626-4.262,1.767c-2.336,2.349-2.33,6.166,0.013,8.505
	C99.716,72.576,101.221,73.199,102.825,73.199"/>
<path fill="#C79119" d="M130.195,60.984c-2.99,3.003-2.987,7.879,0.013,10.87c1.45,1.445,3.378,2.243,5.427,2.243
	c2.055,0,3.986-0.804,5.442-2.259c2.988-3.003,2.98-7.878-0.012-10.866c-1.457-1.448-3.385-2.243-5.43-2.243
	C133.577,58.729,131.645,59.53,130.195,60.984"/>
<path fill="#C79119" d="M163.247,64.757c1.498,0,2.899-0.579,3.948-1.637c2.168-2.169,2.161-5.701-0.006-7.876
	c-1.053-1.05-2.451-1.626-3.939-1.626c-1.498,0-2.896,0.583-3.944,1.636c-2.168,2.168-2.165,5.703,0.006,7.879
	C160.36,64.182,161.759,64.757,163.247,64.757"/>
<path fill="#C79119" d="M140.347,76.939c-1.816,0-3.288,1.476-3.288,3.291c0,1.809,1.472,3.284,3.288,3.284
	c1.812,0,3.281-1.476,3.281-3.284C143.628,78.415,142.158,76.939,140.347,76.939"/>
<rect fill="none" width="444.651" height="223.057"/>
</svg>
